<?xml version="1.0" encoding="UTF-8"?>
<svg width="22px" height="22px" viewBox="0 0 22 22" version="1.1" xmlns="http://www.w3.org/2000/svg" xmlns:xlink="http://www.w3.org/1999/xlink">
    <title>icon/icon_microphone</title>
    <g id="■--Flow-(画面遷移)-" stroke="none" stroke-width="1" fill="none" fill-rule="evenodd">
        <g id="A030_通話中表示_全画面_メンバー@0.0.1" transform="translate(-1129.000000, -707.000000)">
            <g id="Bars/Controls" transform="translate(32.000000, 690.000000)">
                <g id="Right" transform="translate(1080.000000, 0.000000)">
                    <g id="profile-2user" transform="translate(16.000000, 16.000000)">
                        <path d="M9.08054686,11.6199999 C9.03054686,11.6099999 8.96054655,11.6099999 8.90054655,11.6199999 C6.00054646,11.5299999 3.81054688,9.25 3.81054688,6.44000006 C3.81054688,3.58000016 6.14054704,1.25 9.00054693,1.25 C11.8605468,1.25 14.190546,3.58000016 14.190546,6.44000006 C14.180546,9.25 11.9805465,11.5299999 9.19054651,11.6199999 C9.18054651,11.6199999 9.17054678,11.6199999 9.16054678,11.6199999 C9.13054678,11.6199999 9.11054686,11.6199999 9.08054686,11.6199999 Z M5.31054688,6.44000006 C5.31054688,8.44000006 6.87054658,10.0499999 8.86054659,10.1199999 C8.92054659,10.1099999 9.05054724,10.1099999 9.18054724,10.1199999 C11.1405473,10.0299999 12.680546,8.42000008 12.690546,6.44000006 C12.690546,4.41000009 11.0305469,2.75 9.00054693,2.75 C6.97054696,2.75 5.31054688,4.41000009 5.31054688,6.44000006 Z" id="Vector" fill="#FFFFFF"></path>
                        <path d="M16.4503543,11.7399998 C16.0403543,11.7799998 15.6203535,11.4899999 15.5803535,11.0799999 C15.5403535,10.6699999 15.7903543,10.3 16.2003543,10.25 C16.3203543,10.24 16.450353,10.2399998 16.560353,10.2399998 C18.020353,10.1599998 19.1603534,8.9599998 19.1603534,7.48999977 C19.1603534,5.96999979 17.9303533,4.73999977 16.4103534,4.73999977 C16.0003534,4.75 15.6603534,4.41 15.6603534,4 C15.6603534,3.59 16.0003534,3.25 16.4103534,3.25 C18.7503533,3.25 20.6603532,5.16000009 20.6603532,7.5 C20.6603532,9.79999995 18.8603532,11.66 16.5703532,11.75 C16.5603532,11.75 16.5503544,11.75 16.5403544,11.75 C16.5103544,11.75 16.4803543,11.75 16.4503543,11.7399998 Z" id="Vector" fill="#FFFFFF" fill-rule="nonzero"></path>
                        <path d="M3.74960947,21.0499992 C2.35960948,20.1299992 1.59960938,18.8699995 1.59960938,17.4999995 C1.59960938,16.1299995 2.35960948,14.8600001 3.74960947,13.9300001 C6.74960947,11.9400001 11.6096091,11.9400001 14.5896091,13.9300001 C15.9696091,14.8500001 16.7396088,16.1099991 16.7396088,17.4799991 C16.7396088,18.8499991 15.9796091,20.1199992 14.5896091,21.0499992 C13.0896091,22.0499992 11.1296096,22.5499992 9.16960955,22.5499992 C7.20960951,22.5499992 5.23960948,22.0499992 3.74960947,21.0499992 Z M3.09960938,17.5099998 C3.09960938,18.3599998 3.62960941,19.179999 4.57960939,19.809999 C7.0696094,21.4799989 11.2696092,21.4799989 13.7596092,19.809999 C14.7196092,19.169999 15.2396088,18.3499993 15.2396088,17.4899993 C15.2396088,16.6399993 14.7096092,15.8199993 13.7596092,15.1899993 C11.2696092,13.5299994 7.0696094,13.5299994 4.57960939,15.1899993 C3.61960942,15.8299993 3.09960938,16.6499997 3.09960938,17.5099998 Z" id="Vector" fill="#FFFFFF"></path>
                        <path d="M24,0 L24,24 L0,24 L0,0 L24,0 Z" id="Vector" opacity="0"></path>
                        <path d="M17.6101646,20.1500182 C17.5301646,19.7400182 17.7901646,19.3500188 18.1901646,19.2600188 C18.8201646,19.1300188 19.4001644,18.8800193 19.8501644,18.5300193 C20.4201644,18.1000193 20.7301636,17.5600186 20.7301636,16.9900186 C20.7301636,16.4200186 20.4201646,15.8800189 19.8601646,15.4600189 C19.4201646,15.1200189 18.8701633,14.8800183 18.2201633,14.7300183 C17.8201633,14.6400183 17.5601636,14.2400187 17.6501636,13.8300187 C17.7401636,13.4300187 18.1401633,13.170019 18.5501633,13.260019 C19.4101633,13.450019 20.1601645,13.7900189 20.7701645,14.2600189 C21.7001645,14.9600189 22.2301636,15.9500186 22.2301636,16.9900186 C22.2301636,18.0300186 21.6901643,19.0200182 20.7601643,19.7300181 C20.1401643,20.2100181 19.360164,20.5600181 18.500164,20.7300181 C18.440164,20.7500186 18.3901642,20.7500186 18.3401642,20.7500186 C17.9901642,20.7500186 17.6801646,20.5100182 17.6101646,20.1500182 Z" id="Vector" fill="#FFFFFF" fill-rule="nonzero"></path>
                    </g>
                </g>
            </g>
        </g>
    </g>
</svg>