<?xml version="1.0" encoding="UTF-8"?>
<svg width="20px" height="20px" viewBox="0 0 20 20" version="1.1" xmlns="http://www.w3.org/2000/svg" xmlns:xlink="http://www.w3.org/1999/xlink">
    <title>icon/icon_microphone</title>
    <g id="■--Flow-(画面遷移)-" stroke="none" stroke-width="1" fill="none" fill-rule="evenodd">
        <g id="A011-1_通話中_自他共有なし_ミュート中@0.0.1" transform="translate(-1018.000000, -700.000000)">
            <g id="Bars/ControlBar" transform="translate(1000.000000, 682.000000)">
                <g id="microphone-slash" transform="translate(16.000000, 16.000000)">
                    <path d="M16.4181252,7.58160162 L9.13812542,14.8616018 C8.17812544,13.9916018 7.578125,12.7116023 7.578125,11.3416023 L7.578125,6.42160177 C7.578125,4.36160183 8.97812521,2.65160196 10.8781252,2.16160196 C11.0681252,2.11160195 11.2481251,2.27160192 11.2481251,2.46160191 L11.2481251,4.00160182 C11.2481251,4.41160181 11.5881251,4.75160193 11.9981251,4.75160193 C12.4081251,4.75160193 12.7481251,4.41160181 12.7481251,4.00160182 L12.7481251,2.46160191 C12.7481251,2.27160192 12.928125,2.11160195 13.118125,2.16160196 C15.0181249,2.65160196 16.4181252,4.36160183 16.4181252,6.42160177 L16.4181252,7.58160162 Z" id="Vector" fill="#FF2747" fill-rule="nonzero"></path>
                    <path d="M19.811718,11.4010935 C19.811718,15.4710937 16.6817183,18.8210939 12.7017183,19.1710939 L12.7017183,21.3010931 C12.7017183,21.6910931 12.3917185,22.0010939 12.0017185,22.0010939 C11.6117185,22.0010939 11.3017187,21.6910931 11.3017187,21.3010931 L11.3017187,19.1710939 C10.2117187,19.0710939 9.18171877,18.7510936 8.26171875,18.2410936 L9.29171848,17.2110929 C10.1117185,17.5910929 11.0317185,17.8110933 12.0017185,17.8110933 C15.5417185,17.8110933 18.4217186,14.9310935 18.4217186,11.4010935 L18.4217186,9.81109428 C18.4217186,9.43109429 18.7317194,9.12109375 19.1217194,9.12109375 C19.5017194,9.12109375 19.811718,9.43109429 19.811718,9.81109428 L19.811718,11.4010935 Z" id="Vector" fill="#FF2747" fill-rule="nonzero"></path>
                    <path d="M16.4182816,11.5281248 C16.4182816,14.1081247 14.198282,16.1781254 11.5582819,15.9281254 C11.2782819,15.8981254 10.9982812,15.8481253 10.7382812,15.7581253 L16.4182816,10.078125 L16.4182816,11.5281248 Z" id="Vector" fill="#FF2747" fill-rule="nonzero"></path>
                    <path d="M20.6810932,2.22890626 L7.23109388,15.6789064 C6.20109391,14.5489064 5.58109355,13.0489057 5.58109355,11.3989058 L5.58109355,9.80890656 C5.58109355,9.42890656 5.27109373,9.11890602 4.88109374,9.11890602 C4.50109375,9.11890602 4.19109368,9.42890656 4.19109368,9.80890656 L4.19109368,11.3989058 C4.19109368,13.4289057 4.97109365,15.2789062 6.24109364,16.6689062 L2.22109376,20.6889076 C1.92109375,20.9889076 1.92109375,21.4789078 2.22109376,21.7789078 C2.38109376,21.9189078 2.57109372,21.9989071 2.77109373,21.9989071 C2.97109373,21.9989071 3.16109368,21.9189076 3.31109369,21.7689075 L21.7710934,3.3089062 C22.0810934,3.00890619 22.0810934,2.52890627 21.7710934,2.22890626 C21.4710934,1.92890625 20.9810932,1.92890625 20.6810932,2.22890626 Z" id="Vector" fill="#FF2747" fill-rule="nonzero"></path>
                    <path d="M24,0 L24,24 L0,24 L0,0 L24,0 Z" id="Vector" opacity="0"></path>
                </g>
            </g>
        </g>
    </g>
</svg>