<?xml version="1.0" encoding="UTF-8"?>
<svg width="14px" height="14px" viewBox="0 0 14 14" version="1.1" xmlns="http://www.w3.org/2000/svg" xmlns:xlink="http://www.w3.org/1999/xlink">
    <title>icon/icon_microphone-slash copy</title>
    <g id="■--Flow-(画面遷移)-" stroke="none" stroke-width="1" fill="none" fill-rule="evenodd">
        <g id="A030_通話中表示_全画面_参加者@0.0.7" transform="translate(-1133.000000, -212.000000)">
            <g id="List/member" transform="translate(944.000000, 204.000000)">
                <g id="icon" transform="translate(164.000000, 7.000000)">
                    <g id="microphone-slash" transform="translate(24.000000, 0.000000)">
                        <path d="M10.9454168,5.05440108 L6.09208361,9.90773455 C5.45208363,9.32773455 5.05208333,8.47440155 5.05208333,7.56106822 L5.05208333,4.28106785 C5.05208333,2.90773455 5.98541681,1.76773464 7.25208346,1.44106797 C7.37875013,1.40773464 7.49875005,1.51440128 7.49875005,1.64106794 L7.49875005,2.66773454 C7.49875005,2.94106787 7.72541672,3.16773462 7.99875005,3.16773462 C8.27208338,3.16773462 8.49875005,2.94106787 8.49875005,2.66773454 L8.49875005,1.64106794 C8.49875005,1.51440128 8.61874998,1.40773464 8.74541664,1.44106797 C10.0120833,1.76773464 10.9454168,2.90773455 10.9454168,4.28106785 L10.9454168,5.05440108 Z" id="Vector" fill="#5D5D5D" fill-rule="nonzero"></path>
                        <path d="M13.207812,7.60072899 C13.207812,10.3140624 11.1211456,12.547396 8.46781222,12.7807293 L8.46781222,14.2007287 C8.46781222,14.4607287 8.26114567,14.6673959 8.00114568,14.6673959 C7.74114569,14.6673959 7.53447914,14.4607287 7.53447914,14.2007287 L7.53447914,12.7807293 C6.80781245,12.7140626 6.12114584,12.5007291 5.5078125,12.1607291 L6.19447899,11.474062 C6.74114565,11.7273953 7.354479,11.8740622 8.00114568,11.8740622 C10.3611457,11.8740622 12.2811457,9.9540623 12.2811457,7.60072899 L12.2811457,6.54072952 C12.2811457,6.28739619 12.4878129,6.08072917 12.7478129,6.08072917 C13.0011462,6.08072917 13.207812,6.28739619 13.207812,6.54072952 L13.207812,7.60072899 Z" id="Vector" fill="#5D5D5D" fill-rule="nonzero"></path>
                        <path d="M10.945521,7.68541654 C10.945521,9.40541649 9.46552134,10.7854169 7.70552127,10.6187503 C7.5188546,10.5987503 7.33218749,10.5654169 7.15885417,10.5054169 L10.945521,6.71875 L10.945521,7.68541654 Z" id="Vector" fill="#5D5D5D" fill-rule="nonzero"></path>
                        <path d="M13.7873955,1.48593751 L4.82072926,10.4526043 C4.13406261,9.69927096 3.72072903,8.69927049 3.72072903,7.5992705 L3.72072903,6.53927104 C3.72072903,6.28593771 3.51406248,6.07927068 3.25406249,6.07927068 C3.00072916,6.07927068 2.79406246,6.28593771 2.79406246,6.53927104 L2.79406246,7.5992705 C2.79406246,8.95260382 3.31406244,10.1859375 4.16072909,11.1126041 L1.48072917,13.7926051 C1.28072916,13.9926051 1.28072916,14.3192718 1.48072917,14.5192719 C1.58739584,14.6126052 1.71406248,14.6659381 1.84739582,14.6659381 C1.98072915,14.6659381 2.10739579,14.612605 2.20739579,14.512605 L14.5140622,2.20593747 C14.7207289,2.00593746 14.7207289,1.68593751 14.5140622,1.48593751 C14.3140622,1.2859375 13.9873955,1.2859375 13.7873955,1.48593751 Z" id="Vector" fill="#5D5D5D" fill-rule="nonzero"></path>
                        <path d="M16,0 L16,16 L0,16 L0,0 L16,0 Z" id="Vector" opacity="0"></path>
                    </g>
                </g>
            </g>
        </g>
    </g>
</svg>