<?xml version="1.0" encoding="UTF-8"?>
<svg width="16px" height="14px" viewBox="0 0 16 14" version="1.1" xmlns="http://www.w3.org/2000/svg" xmlns:xlink="http://www.w3.org/1999/xlink">
    <title>icon/icon_microphone-slash copy</title>
    <g id="■--Flow-(画面遷移)-" stroke="none" stroke-width="1" fill="none" fill-rule="evenodd">
        <g id="A002-1_メニュー展開_ホバー@0.0.2" transform="translate(-1123.000000, -496.000000)">
            <g id="List/member-Copy-5" transform="translate(912.000000, 488.000000)">
                <g id="icon" transform="translate(183.294118, 7.000000)">
                    <g id="icon/icon_microphone-slash-copy" transform="translate(26.823529, 0.000000)">
                        <g id="Group" transform="translate(0.000000, 0.000000)">
                            <path d="M17.8823529,0 L17.8823529,16 L0,16 L0,0 L17.8823529,0 Z M9.38338478,15.5052273 L9.37477897,15.5063421 L9.32183044,15.5300293 L9.30767462,15.5324979 L9.30767462,15.5324979 L9.29637603,15.5300293 L9.24342907,15.5063421 C9.23610334,15.5042441 9.22956615,15.5060157 9.2259098,15.5099383 L9.2228476,15.5172207 L9.2101129,15.8020731 L9.21380389,15.8156663 L9.2220075,15.8238093 L9.29917946,15.8731287 L9.31026011,15.8757423 L9.31026011,15.8757423 L9.31902701,15.8731287 L9.39620054,15.8238093 L9.40559146,15.8131155 L9.40559146,15.8131155 L9.40809417,15.8020731 L9.39535918,15.5172207 C9.39387747,15.5104675 9.38898874,15.5061995 9.38338478,15.5052273 L9.38338478,15.5052273 Z M9.58076162,15.4301908 L9.5704479,15.4315381 L9.43282516,15.4931065 L9.42540242,15.4999368 L9.42540242,15.4999368 L9.42339967,15.5074076 L9.43673693,15.7937593 L9.44034365,15.8022785 L9.44034365,15.8022785 L9.44664055,15.8069954 L9.59637113,15.8688259 C9.6053781,15.8712666 9.61342873,15.8686583 9.61759778,15.8634843 L9.62057437,15.8541093 L9.5951324,15.4443554 C9.59335199,15.4363931 9.58748211,15.4313344 9.58076162,15.4301908 L9.58076162,15.4301908 Z M9.04776073,15.4315381 C9.04043679,15.4282617 9.03220979,15.4301737 9.027337,15.4350636 L9.02307564,15.4443554 L8.99763359,15.8541093 C8.9971574,15.8617759 9.00287796,15.8679068 9.01020839,15.8697117 L9.0218378,15.8688259 L9.17156868,15.8069954 L9.17860174,15.8016231 L9.17860174,15.8016231 L9.18147379,15.7937593 L9.19480859,15.5074076 L9.19245706,15.4990117 L9.19245706,15.4990117 L9.18538466,15.4931065 L9.04776073,15.4315381 Z" id="MingCute"></path>
                            <path d="M5.10934588,1.62992667 C5.96024784,2.18526953 6.62329386,2.94368041 7.1902092,3.66877691 L7.51955653,4.09794603 L7.51955653,4.09794603 L7.83023529,4.50777333 L7.83023529,4.50777333 C8.14943529,4.92556667 8.07321176,5.496 7.63956471,5.83181333 L6.18578902,6.7978 C6.04169451,6.8936 5.99378471,7.0676 6.08020863,7.20833333 C6.40913216,7.74406667 6.99512196,8.54126667 7.66571765,9.14126667 C8.33697647,9.74186667 9.27006275,10.3 9.90995294,10.6274667 C10.0758863,10.7123333 10.2845882,10.6632 10.389498,10.5202 L11.335251,9.2312 C11.6979647,8.7994 12.3751843,8.70506667 12.8674706,9.00993333 L13.3620653,9.31572773 C14.2848441,9.8890138 15.2773068,10.5403743 16.0352549,11.4088667 C16.2897804,11.7004667 16.3275569,12.0818 16.1757804,12.3987333 C15.5522824,13.7004667 13.9744627,14.8090667 12.3331608,14.755 L12.1092409,14.7438667 L12.1092409,14.7438667 L11.9356701,14.730471 L11.9356701,14.730471 L11.7435897,14.7112163 L11.7435897,14.7112163 L11.5337914,14.6851767 L11.5337914,14.6851767 L11.3070662,14.6514267 C11.2679121,14.6451077 11.2280857,14.6384288 11.1876034,14.6313708 L10.9369719,14.5843189 C10.8939323,14.5756673 10.8502699,14.5665979 10.8060011,14.5570915 L10.5332438,14.4946547 L10.5332438,14.4946547 L10.2467253,14.4208042 L10.2467253,14.4208042 L9.94723675,14.334614 C8.57154309,13.9176052 6.82592464,13.0976583 5.03488824,11.4951333 C3.24383508,9.89260833 2.32742805,8.3307352 1.86135829,7.0998574 L1.76502773,6.83189553 L1.76502773,6.83189553 L1.68248836,6.57553863 L1.68248836,6.57553863 L1.61270541,6.3314948 L1.61270541,6.3314948 L1.55464416,6.10047208 C1.53712905,6.02571336 1.5213951,5.95324283 1.50726986,5.88317851 L1.46954776,5.68032214 L1.46954776,5.68032214 L1.44044313,5.49261101 L1.44044313,5.49261101 L1.41892123,5.32075319 L1.41892123,5.32075319 L1.40394731,5.1654567 L1.40394731,5.1654567 L1.39150039,4.96511333 L1.39150039,4.96511333 C1.33130392,3.50147333 2.5844098,2.07934667 4.03258235,1.52403333 C4.37239922,1.39372667 4.78397647,1.41757333 5.10934588,1.62992667 Z M11.1702866,4.02634877 L11.2567176,4.03543333 C11.7990745,4.12099333 12.2972471,4.35799333 12.6798549,4.71244667 C13.0623882,5.0669 13.3096863,5.52062 13.3863569,6.00858 C13.4436549,6.37318667 13.159698,6.71026667 12.7522039,6.76153333 C12.3738165,6.80913807 12.0218984,6.59348225 11.9277385,6.27050688 L11.9106902,6.19414 C11.8778314,5.98502 11.7718039,5.79056667 11.6078824,5.63866 C11.4712189,5.51206555 11.3001983,5.42043407 11.1124559,5.37218377 L10.9979451,5.34850667 C10.5927608,5.28457333 10.3221412,4.9388 10.3935961,4.57620667 C10.4599471,4.23950667 10.7979288,4.00669568 11.1702866,4.02634877 L11.1702866,4.02634877 Z M11.1764706,1.99999333 C11.7635333,1.99999333 12.3449333,2.10345333 12.8872902,2.30447333 C13.4297216,2.50549333 13.9225294,2.80013333 14.337698,3.17156667 C14.7527922,3.543 15.0821255,3.98396 15.3067725,4.46926 C15.5314196,4.95456 15.6470588,5.47470667 15.6470588,5.99999333 C15.6470588,6.36818 15.3134784,6.66666 14.9019608,6.66666 C14.5198373,6.66666 14.2049147,6.40929714 14.1618754,6.07774017 L14.1568627,5.99999333 C14.1568627,5.6498 14.0798196,5.30304 13.9299804,4.97950667 C13.7802157,4.65596667 13.5607098,4.362 13.2839059,4.11437333 C13.0071765,3.86675333 12.6786627,3.67032667 12.3169922,3.53631333 C12.0156621,3.42463555 11.6963255,3.35812445 11.3717456,3.33905623 L11.1764706,3.33332667 C10.7649529,3.33332667 10.4313725,3.03484667 10.4313725,2.66666 C10.4313725,2.29847333 10.7649529,1.99999333 11.1764706,1.99999333 Z" id="形状" fill="#BABABA" fill-rule="nonzero"></path>
                        </g>
                    </g>
                </g>
            </g>
        </g>
    </g>
</svg>