<?xml version="1.0" encoding="UTF-8"?>
<svg width="16px" height="16px" viewBox="0 0 16 16" version="1.1" xmlns="http://www.w3.org/2000/svg" xmlns:xlink="http://www.w3.org/1999/xlink">
    <title>icon/icon_microphone-slash copy</title>
    <g id="■--Flow-(画面遷移)-" stroke="none" stroke-width="1" fill="none" fill-rule="evenodd">
        <g id="A030_通話中表示_全画面_参加者@0.0.7" transform="translate(-1132.000000, -241.000000)">
            <g id="List/member-Copy-2" transform="translate(944.000000, 234.000000)">
                <g id="icon" transform="translate(164.000000, 7.000000)">
                    <g id="monitor-recorder" transform="translate(24.000000, 0.000000)">
                        <path d="M4.29333337,11.9799995 C1.64000003,11.9799995 0.833333333,11.1733332 0.833333333,8.51999982 L0.833333333,4.29333337 C0.833333333,1.64000003 1.64000003,0.833333333 4.29333337,0.833333333 L5.33333333,0.833333333 C5.60666666,0.833333333 5.83333333,1.06 5.83333333,1.33333333 C5.83333333,1.60666666 5.60666666,1.83333333 5.33333333,1.83333333 L4.29333337,1.83333333 C2.19999997,1.83333333 1.83333333,2.19999997 1.83333333,4.29333337 L1.83333333,8.51333364 C1.83333333,10.606667 2.19999997,10.9733327 4.29333337,10.9733327 L11.6999995,10.9733327 C13.7933329,10.9733327 14.1599998,10.606667 14.1599998,8.51333364 L14.1599998,7.92000008 C14.1599998,7.64666675 14.3866665,7.42000008 14.6599998,7.42000008 C14.9333332,7.42000008 15.1600405,7.64666675 15.1600405,7.92000008 L15.1600405,8.51333364 C15.1666665,11.1733336 14.3599997,11.9799995 11.7066663,11.9799995 L4.29333337,11.9799995 Z" id="Vector" fill="#5D5D5D" fill-rule="nonzero"></path>
                        <path d="M7.5,14.6666476 L7.5,11.4799805 C7.5,11.2066471 7.72666667,10.9799805 8,10.9799805 C8.27333333,10.9799805 8.5,11.2066471 8.5,11.4799805 L8.5,14.6666476 C8.5,14.9399809 8.27333333,15.1666476 8,15.1666476 C7.72666667,15.1666476 7.5,14.9399809 7.5,14.6666476 Z" id="Vector" fill="#5D5D5D" fill-rule="nonzero"></path>
                        <path d="M1.33333333,9.16666667 C1.06,9.16666667 0.833333333,8.94 0.833333333,8.66666667 C0.833333333,8.39333334 1.06,8.16666667 1.33333333,8.16666667 L14.6666667,8.16666667 C14.94,8.16666667 15.1666667,8.39333334 15.1666667,8.66666667 C15.1666667,8.94 14.94,9.16666667 14.6666667,9.16666667 L1.33333333,9.16666667 Z" id="Vector" fill="#5D5D5D" fill-rule="nonzero"></path>
                        <path d="M5,15.1666667 C4.72666667,15.1666667 4.5,14.94 4.5,14.6666667 C4.5,14.3933333 4.72666667,14.1666667 5,14.1666667 L11,14.1666667 C11.2733333,14.1666667 11.5,14.3933333 11.5,14.6666667 C11.5,14.94 11.2733333,15.1666667 11,15.1666667 L5,15.1666667 Z" id="Vector" fill="#5D5D5D" fill-rule="nonzero"></path>
                        <path d="M8.73317719,6.74667295 C7.68651048,6.74667295 7.00651042,6.06667352 7.00651042,5.02000682 L7.00651042,2.67334 C7.00651042,1.66000668 7.82651043,0.84000651 8.83984375,0.84000651 L11.9065107,0.84000651 C12.859844,0.84000651 13.6331774,1.61333982 13.6331774,2.56667312 L13.6331774,5.02000682 C13.6331774,5.97334011 12.859844,6.74667295 11.9065107,6.74667295 L8.73317719,6.74667295 Z M8.00651042,2.67334 L8.00651042,5.02000682 C8.00651042,5.67334016 8.41984385,5.74667295 8.73317719,5.74667295 L11.9065107,5.74667295 C12.3065107,5.74667295 12.6331774,5.42000683 12.6331774,5.02000682 L12.6331774,2.56667312 C12.6331774,2.1666731 12.3065107,1.84000651 11.9065107,1.84000651 L8.83984375,1.84000651 C8.37984375,1.84000651 8.00651042,2.21334 8.00651042,2.67334 Z" id="Vector" fill="#5D5D5D"></path>
                        <path d="M13.6534627,5.68663311 L12.8467967,5.11996651 C12.7134633,5.02663317 12.6334635,4.87330007 12.6334635,4.71330007 L12.6334635,2.87330008 C12.6334635,2.71330008 12.7134633,2.55996681 12.8467967,2.46663348 L13.6534627,1.89996668 C14.0001294,1.65330001 14.3734633,1.60663347 14.68013,1.76663347 C14.9867967,1.92663347 15.1601295,2.25996693 15.1601295,2.68663359 L15.1601295,4.90663338 C15.1601295,5.33330003 14.9867967,5.66663314 14.68013,5.82663314 C14.5667967,5.88663314 14.4401302,5.91329988 14.3001302,5.91329988 C14.0867969,5.91329988 13.8667961,5.83996645 13.6534627,5.68663311 Z M14.1667964,4.82663314 L14.1667964,2.75996669 L13.6334635,3.13329999 L13.6334635,4.45329984 L14.1667964,4.82663314 Z" id="Vector" fill="#5D5D5D"></path>
                        <path d="M16,0 L16,16 L0,16 L0,0 L16,0 Z" id="Vector" opacity="0"></path>
                    </g>
                </g>
            </g>
        </g>
    </g>
</svg>