<?xml version="1.0" encoding="UTF-8"?>
<svg width="22px" height="22px" viewBox="0 0 22 22" version="1.1" xmlns="http://www.w3.org/2000/svg" xmlns:xlink="http://www.w3.org/1999/xlink">
    <title>icon/icon_microphone</title>
    <g id="■--Flow-(画面遷移)-" stroke="none" stroke-width="1" fill="none" fill-rule="evenodd">
        <g id="A020-2_通話中表示_全画面_自分が画面共有中@0.0.1" transform="translate(-589.000000, -707.000000)">
            <g id="Bars/Controls" transform="translate(32.000000, 690.000000)">
                <g id="Center" transform="translate(460.000000, 0.000000)">
                    <g id="Buttons/hasIconOnly-Copy-2" transform="translate(80.000000, 0.000000)">
                        <g id="monitor-recorder" transform="translate(16.000000, 16.000000)">
                            <path d="M6.44000006,17.9699993 C2.46000004,17.9699993 1.25,16.7599998 1.25,12.7799997 L1.25,6.44000006 C1.25,2.46000004 2.46000004,1.25 6.44000006,1.25 L8,1.25 C8.41,1.25 8.75,1.59 8.75,2 C8.75,2.41 8.41,2.75 8,2.75 L6.44000006,2.75 C3.29999995,2.75 2.75,3.29999995 2.75,6.44000006 L2.75,12.7700005 C2.75,15.9100006 3.29999995,16.4599991 6.44000006,16.4599991 L17.5499992,16.4599991 C20.6899993,16.4599991 21.2399998,15.9100006 21.2399998,12.7700005 L21.2399998,11.8800001 C21.2399998,11.4700001 21.5799998,11.1300001 21.9899998,11.1300001 C22.3999998,11.1300001 22.7400608,11.4700001 22.7400608,11.8800001 L22.7400608,12.7700005 C22.75,16.7600005 21.5399995,17.9699993 17.5599995,17.9699993 L6.44000006,17.9699993 Z" id="Vector" fill="#FFFFFF" fill-rule="nonzero"></path>
                            <path d="M11.25,21.9999714 L11.25,17.2199707 C11.25,16.8099707 11.59,16.4699707 12,16.4699707 C12.41,16.4699707 12.75,16.8099707 12.75,17.2199707 L12.75,21.9999714 C12.75,22.4099714 12.41,22.7499714 12,22.7499714 C11.59,22.7499714 11.25,22.4099714 11.25,21.9999714 Z" id="Vector" fill="#FFFFFF" fill-rule="nonzero"></path>
                            <path d="M2,13.75 C1.59,13.75 1.25,13.41 1.25,13 C1.25,12.59 1.59,12.25 2,12.25 L22,12.25 C22.41,12.25 22.75,12.59 22.75,13 C22.75,13.41 22.41,13.75 22,13.75 L2,13.75 Z" id="Vector" fill="#FFFFFF" fill-rule="nonzero"></path>
                            <path d="M7.5,22.75 C7.09,22.75 6.75,22.41 6.75,22 C6.75,21.59 7.09,21.25 7.5,21.25 L16.5,21.25 C16.91,21.25 17.25,21.59 17.25,22 C17.25,22.41 16.91,22.75 16.5,22.75 L7.5,22.75 Z" id="Vector" fill="#FFFFFF" fill-rule="nonzero"></path>
                            <path d="M13.0997658,10.1200094 C11.5297657,10.1200094 10.5097656,9.10001028 10.5097656,7.53001022 L10.5097656,4.01001 C10.5097656,2.49001002 11.7397656,1.26000977 13.2597656,1.26000977 L17.859766,1.26000977 C19.289766,1.26000977 20.4497662,2.42000973 20.4497662,3.85000968 L20.4497662,7.53001022 C20.4497662,8.96001017 19.289766,10.1200094 17.859766,10.1200094 L13.0997658,10.1200094 Z M12.0097656,4.01001 L12.0097656,7.53001022 C12.0097656,8.51001024 12.6297658,8.62000942 13.0997658,8.62000942 L17.859766,8.62000942 C18.459766,8.62000942 18.9497662,8.13001025 18.9497662,7.53001022 L18.9497662,3.85000968 C18.9497662,3.25000966 18.459766,2.76000977 17.859766,2.76000977 L13.2597656,2.76000977 C12.5697656,2.76000977 12.0097656,3.32001001 12.0097656,4.01001 Z" id="Vector" fill="#FFFFFF"></path>
                            <path d="M20.4801941,8.52994967 L19.270195,7.67994976 C19.070195,7.53994976 18.9501953,7.3099501 18.9501953,7.0699501 L18.9501953,4.30995011 C18.9501953,4.06995012 19.070195,3.83995022 19.270195,3.69995022 L20.4801941,2.84995002 C21.0001941,2.47995001 21.560195,2.40995021 22.020195,2.64995021 C22.480195,2.8899502 22.7401943,3.38995039 22.7401943,4.02995038 L22.7401943,7.35995007 C22.7401943,7.99995005 22.480195,8.49994971 22.020195,8.7399497 C21.850195,8.82994971 21.6601953,8.86994982 21.4501953,8.86994982 C21.1301953,8.86994982 20.8001941,8.75994967 20.4801941,8.52994967 Z M21.2501945,7.2399497 L21.2501945,4.13995004 L20.4501953,4.69994998 L20.4501953,6.67994976 L21.2501945,7.2399497 Z" id="Vector" fill="#FFFFFF"></path>
                            <path d="M24,0 L24,24 L0,24 L0,0 L24,0 Z" id="Vector" opacity="0"></path>
                        </g>
                    </g>
                </g>
            </g>
        </g>
    </g>
</svg>