<?xml version="1.0" encoding="UTF-8"?>
<svg width="10px" height="6px" viewBox="0 0 10 6" version="1.1" xmlns="http://www.w3.org/2000/svg" xmlns:xlink="http://www.w3.org/1999/xlink">
    <title>icon/icon_microphone-slash copy</title>
    <g id="■--Flow-(画面遷移)-" stroke="none" stroke-width="1" fill="none" fill-rule="evenodd">
        <g id="A002-1_メニュー展開_ホバー@0.0.2" transform="translate(-1126.000000, -320.000000)" fill="#005BD5" fill-rule="nonzero">
            <g id="List/member-Copy-2" transform="translate(912.000000, 308.000000)">
                <g id="icon" transform="translate(183.294118, 7.000000)">
                    <g id="icon/icon_microphone-slash-copy" transform="translate(31.294118, 5.333333)">
                        <g id="36アートボード-25" transform="translate(0.000000, 0.000000)">
                            <path d="M3.07991582,5.33333333 C3.05200463,5.33333333 3.02407495,5.33245688 2.99612678,5.33070397 C2.6567843,5.30915515 2.34238482,5.16134746 2.12747491,4.92232725 L0.0933119255,2.75171882 C0.025951998,2.67984053 -0.00714776138,2.58665061 0.00129447883,2.4926505 C0.00973671904,2.3986504 0.0590293868,2.31154042 0.138328267,2.25048446 L0.387850477,2.05836596 C0.467150044,1.99731014 0.569959803,1.96731031 0.673661797,1.97496636 C0.777363792,1.98262242 0.873462881,2.0273072 0.940817443,2.09919012 L2.98966681,4.28580178 C3.00979514,4.30906053 3.03996947,4.32336852 3.07252611,4.32509181 C3.10510794,4.32766082 3.1372996,4.31718486 3.16063879,4.29641777 L8.05410446,0.0973580225 C8.12966303,0.0325216706 8.23054181,-0.00245105584 8.33454778,0.000133733233 C8.43855375,0.00271852231 8.53716693,0.0426490856 8.60869272,0.111140824 L8.83377779,0.326677696 C8.98271549,0.469297687 8.97590893,0.694355116 8.8185747,0.829364402 L3.9251421,5.0284404 C3.69660158,5.22405314 3.39424243,5.33312117 3.07991582,5.33333333 Z" id="Path"></path>
                        </g>
                    </g>
                </g>
            </g>
        </g>
    </g>
</svg>