<?xml version="1.0" encoding="UTF-8"?>
<svg width="34px" height="20px" viewBox="0 0 34 20" version="1.1" xmlns="http://www.w3.org/2000/svg" xmlns:xlink="http://www.w3.org/1999/xlink">
    <title>↳📍Icon</title>
    <g id="■--Flow-(画面遷移)-" stroke="none" stroke-width="1" fill="none" fill-rule="evenodd">
        <g id="A001_ホーム@0.0.0" transform="translate(-1123.000000, -700.000000)">
            <g id="Buttons/FAB" transform="translate(1112.000000, 682.000000)">
                <g id="menu" transform="translate(8.000000, 8.000000)">
                    <path d="M5,12.9166667 C4.31666667,12.9166667 3.75,12.35 3.75,11.6666667 C3.75,10.9833333 4.31666667,10.4166667 5,10.4166667 L35,10.4166667 C35.6833333,10.4166667 36.25,10.9833333 36.25,11.6666667 C36.25,12.35 35.6833333,12.9166667 35,12.9166667 L5,12.9166667 Z" id="Vector" fill="#FFFFFF" fill-rule="nonzero"></path>
                    <path d="M5,21.25 C4.31666667,21.25 3.75,20.6833333 3.75,20 C3.75,19.3166667 4.31666667,18.75 5,18.75 L35,18.75 C35.6833333,18.75 36.25,19.3166667 36.25,20 C36.25,20.6833333 35.6833333,21.25 35,21.25 L5,21.25 Z" id="Vector" fill="#FFFFFF" fill-rule="nonzero"></path>
                    <path d="M5,29.5833333 C4.31666667,29.5833333 3.75,29.0166667 3.75,28.3333333 C3.75,27.65 4.31666667,27.0833333 5,27.0833333 L35,27.0833333 C35.6833333,27.0833333 36.25,27.65 36.25,28.3333333 C36.25,29.0166667 35.6833333,29.5833333 35,29.5833333 L5,29.5833333 Z" id="Vector" fill="#FFFFFF" fill-rule="nonzero"></path>
                    <path d="M40,0 L40,40 L0,40 L0,0 L40,0 Z" id="Vector" opacity="0"></path>
                </g>
            </g>
        </g>
    </g>
</svg>