<?xml version="1.0" encoding="UTF-8"?>
<svg width="16px" height="20px" viewBox="0 0 16 20" version="1.1" xmlns="http://www.w3.org/2000/svg" xmlns:xlink="http://www.w3.org/1999/xlink">
    <title>icon/icon_microphone</title>
    <g id="■--Flow-(画面遷移)-" stroke="none" stroke-width="1" fill="none" fill-rule="evenodd">
        <g id="A020-2_通話中表示_全画面_自分が画面共有中@0.0.1" transform="translate(-512.000000, -708.000000)">
            <g id="Bars/Controls" transform="translate(32.000000, 690.000000)">
                <g id="Center" transform="translate(460.000000, 0.000000)">
                    <g id="microphone-2" transform="translate(16.000000, 16.000000)">
                        <path d="M18.4196873,9.81937504 L18.4196873,11.399375 C18.4196873,14.9393749 15.5396876,17.819375 11.9996877,17.819375 C8.45968771,17.819375 5.5796876,14.9393749 5.5796876,11.399375 L5.5796876,9.80937576 C5.5796876,9.41937578 5.26968777,9.109375 4.87968779,9.109375 C4.4896878,9.109375 4.1796875,9.41937578 4.1796875,9.80937576 L4.1796875,11.3893757 C4.1796875,15.4593759 7.30968785,18.8093754 11.2996879,19.1693754 L11.2996879,21.2993746 C11.2996879,21.6893746 11.6096877,21.9993753 11.9996877,21.9993753 C12.3896877,21.9993753 12.699688,21.6893746 12.699688,21.2993746 L12.699688,19.1693754 C16.6796875,18.8193754 19.8196869,15.4593759 19.8196869,11.3893757 L19.8196869,9.80937576 C19.8096869,9.42937577 19.499688,9.11937523 19.119688,9.11937523 C18.729688,9.11937523 18.4196873,9.42937505 18.4196873,9.81937504 Z" id="Vector" fill="#FFFFFF" fill-rule="nonzero"></path>
                        <path d="M7.578125,6.42000008 L7.578125,11.54 C7.578125,13.98 9.55812502,15.96 11.9981251,15.96 C14.4381251,15.96 16.4181252,13.98 16.4181252,11.54 L16.4181252,6.42000008 C16.4181252,3.98000002 14.4381251,2 11.9981251,2 C9.55812502,2 7.578125,3.98000002 7.578125,6.42000008 Z M12.7481251,9.38000011 C12.6981251,9.38000011 12.6481255,9.36999966 12.5981255,9.35999966 C12.2081255,9.24999966 11.7981249,9.24999966 11.4081249,9.35999966 C11.0881249,9.44999966 10.7781249,9.25999981 10.6981249,8.94999981 C10.6081249,8.63999981 10.7981247,8.31999977 11.1081247,8.23999977 C11.6981247,8.07999977 12.3181249,8.07999977 12.9081249,8.23999977 C13.2081249,8.31999977 13.3881255,8.63999981 13.3081255,8.94999981 C13.2381255,9.2099998 13.0081251,9.38000011 12.7481251,9.38000011 Z M13.288125,7.38999987 C13.218125,7.38999987 13.1581252,7.38000013 13.0881252,7.36000013 C12.3881252,7.10000014 11.6081249,7.10000014 10.9081249,7.36000013 C10.6081249,7.47000013 10.2681249,7.31000024 10.1581249,7.01000023 C10.0481249,6.71000022 10.2081253,6.36999998 10.5081253,6.26999998 C11.4681253,5.91999999 12.5281249,5.91999999 13.4881248,6.26999998 C13.7881249,6.37999998 13.9481252,6.71000022 13.8381252,7.01000023 C13.7481252,7.25000022 13.528125,7.38999987 13.288125,7.38999987 Z" id="Vector" fill="#FFFFFF"></path>
                        <path d="M24,0 L24,24 L0,24 L0,0 L24,0 Z" id="Vector" opacity="0"></path>
                    </g>
                </g>
            </g>
        </g>
    </g>
</svg>